<svg xmlns="http://www.w3.org/2000/svg" viewBox="0 0 50 50" xml:space="preserve" width="50" height="50"><path style="fill:#ff6465" d="m37.177 25 11.357-11.357a2.18 2.18 0 0 0 0-3.084l-9.093-9.093a2.18 2.18 0 0 0-3.084 0L25 12.823 13.643 1.466a2.18 2.18 0 0 0-3.084 0l-9.092 9.092a2.18 2.18 0 0 0 0 3.084L12.824 25 1.466 36.357a2.18 2.18 0 0 0 0 3.084l9.093 9.092a2.18 2.18 0 0 0 3.084 0L25 37.176l11.357 11.358a2.18 2.18 0 0 0 3.084 0l9.093-9.092a2.18 2.18 0 0 0 0-3.084z"/><path d="M37.899 49.999c-.77 0-1.541-.293-2.127-.88l-4.282-4.282a.828.828 0 0 1 1.17-1.17l4.282 4.282a1.354 1.354 0 0 0 1.914 0l9.092-9.092a1.34 1.34 0 0 0 .396-.957c0-.361-.141-.701-.396-.957L36.591 25.586a.827.827 0 0 1 0-1.17l11.357-11.358c.256-.256.396-.595.396-.957s-.141-.701-.396-.957l-9.093-9.093a1.34 1.34 0 0 0-.957-.396c-.361 0-.701.141-.957.396L25.584 13.408a.83.83 0 0 1-1.171 0l-6.4-6.4a.828.828 0 1 1 1.17-1.17l5.815 5.815L35.772.881C36.34.313 37.095 0 37.899 0s1.559.313 2.127.881l9.093 9.093c.568.568.881 1.324.881 2.127s-.313 1.559-.881 2.127L38.346 25l10.772 10.772c.568.568.881 1.324.881 2.127s-.313 1.559-.881 2.127l-9.092 9.092a3 3 0 0 1-2.127.88"/><path d="M12.1 50a3 3 0 0 1-2.127-.881L.88 40.026a3.01 3.01 0 0 1 0-4.254L11.652 25 .88 14.228a3.01 3.01 0 0 1 0-4.254L9.973.882C10.541.313 11.297 0 12.1 0s1.559.313 2.127.881l2.617 2.617a.828.828 0 0 1-1.17 1.17l-2.617-2.617a1.34 1.34 0 0 0-.957-.396c-.361 0-.701.141-.957.396l-9.092 9.093a1.354 1.354 0 0 0 0 1.914l11.357 11.357a.827.827 0 0 1 0 1.17L2.051 36.942a1.354 1.354 0 0 0 0 1.914l9.093 9.093a1.34 1.34 0 0 0 .957.396c.361 0 .701-.141.957-.396l11.357-11.357a.83.83 0 0 1 1.171 0l4.735 4.735a.828.828 0 0 1-1.17 1.17l-4.15-4.15-10.773 10.772a3 3 0 0 1-2.127.881"/></svg>