<svg width="50" height="50" viewBox="0 0 16 16" style="fill-rule:evenodd;clip-rule:evenodd;stroke-linejoin:round;stroke-miterlimit:1.41421" xml:space="preserve" xmlns="http://www.w3.org/2000/svg"><path d="M1.613 5.132V5.06c0-.417.252-.816.701-1.111s1.057-.46 1.692-.46h7.991c.634 0 1.243.166 1.692.46s.701.694.701 1.111v.072a4 4 0 0 0-.274-.01H1.887q-.138 0-.274.01" style="fill:#1d61e1;fill-opacity:.290196"/><path d="M3.203 3.58v-.069c0-.417.252-.816.701-1.111s1.057-.46 1.692-.46h4.809c.634 0 1.243.166 1.692.46s.701.694.701 1.111v.069a3.5 3.5 0 0 0-.802-.091H4.005c-.276 0-.547.031-.802.091" style="fill:#1d61e1;fill-opacity:.709804"/><path d="M2.846 3.289c.114-.701.785-1.251 1.427-1.492.415-.156.863-.23 1.306-.232q2.421-.005 4.842 0c1.15.007 2.425.496 2.706 1.592q.016.063.026.127c.743.227 1.376.689 1.564 1.423q.041.161.045.329c.677.385 1.169 1.111 1.177 1.944q.008 2.61 0 5.221c-.011 1.165-1.023 2.225-2.236 2.236q-5.703.018-11.406 0c-1.16-.011-2.225-1.008-2.236-2.236q-.008-2.61 0-5.22c.007-.797.482-1.55 1.177-1.946.001-.063.003-.078.007-.118.077-.737.772-1.317 1.437-1.568a3 3 0 0 1 .164-.057m10.931 2.204q-5.775-.013-11.55 0c-.744.048-1.408.696-1.416 1.488-.005 1.74-.016 3.48 0 5.221.012.766.671 1.469 1.481 1.481a621 621 0 0 0 11.415 0c.77-.012 1.469-.673 1.481-1.481q.024-2.615 0-5.23c-.012-.746-.635-1.428-1.412-1.478m-1.76-1.632c-2.671-.009-5.341 0-8.011 0a3.3 3.3 0 0 0-.718.081s-.013.002-.034.004a2.2 2.2 0 0 0-.834.383 1.2 1.2 0 0 0-.351.402l-.006.011h.128l.106-.004q5.703-.018 11.406 0l.104.004h.13c-.207-.424-.668-.68-1.194-.8l-.074-.011c-.096-.021-.105-.021-.152-.029a3 3 0 0 0-.498-.042zm.274-.739.017.001c-.347-.574-1.144-.807-1.89-.811-1.617-.003-3.233-.01-4.849 0-.729.007-1.523.236-1.874.807 0 0 .116-.005.226-.007l.032-.001h.054q1.676-.005 3.352-.004 2.318-.001 4.636.004h.079q.108.002.217.01" style="fill:#1d61e1;fill-rule:nonzero"/><path d="m10.863 9.623-4.666 2.792V6.83z" style="fill:#1d61e1;fill-opacity:.290196"/><path d="M6.23 6.457a.4.4 0 0 1 .16.052l4.666 2.792a.3.3 0 0 1 .122.118.386.386 0 0 1-.076.492c-.02.016-.025.019-.047.033l-4.666 2.792a.33.33 0 0 1-.16.052.386.386 0 0 1-.403-.317c-.004-.025-.003-.031-.004-.056V6.83c.003-.087.012-.101.026-.138a.39.39 0 0 1 .381-.236m.342 5.297 3.56-2.131-3.56-2.131z" style="fill:#1d61e1;fill-rule:nonzero"/></svg>