<svg width="50" height="50" viewBox="0 0 3 3" version="1" xmlns="http://www.w3.org/2000/svg"><path fill="#E65100" d="M2.563 2.625H.813a.25.25 0 0 1-.25-.25v-1.25a.25.25 0 0 1 .25-.25h1.75a.25.25 0 0 1 .25.25v1.25a.25.25 0 0 1-.25.25"/><path fill="#F57C00" d="M2.188 2.25H.438A.25.25 0 0 1 .188 2V.75A.25.25 0 0 1 .438.5h1.75a.25.25 0 0 1 .25.25V2a.25.25 0 0 1-.25.25"/><path fill="#FFF9C4" d="M2.063 1a.19.19 0 0 1-.188.188A.19.19 0 0 1 1.688 1a.188.188 0 0 1 .375 0"/><path fill="#942A09" d="M1.063 1.119.5 1.938h1.125Z"/><path fill="#BF360C" d="m1.75 1.469-.375.469h.75Z"/></svg>