<svg width="50" height="50" viewBox="0 0 3 3" fill="none" xmlns="http://www.w3.org/2000/svg" version="1.1" xmlns:xlink="http://www.w3.org/1999/xlink"><path fill="red" d="M2.75 1.5A1.25 1.25 0 0 1 1.5 2.75 1.25 1.25 0 0 1 .25 1.5a1.25 1.25 0 0 1 2.5 0"></path><path fill-rule="evenodd" clip-rule="evenodd" d="M2.206 1.024a.2.2 0 0 1 .052.09c.053.214.041.551.001.773a.2.2 0 0 1-.142.142c-.124.034-.626.034-.626.034s-.502 0-.626-.034a.2.2 0 0 1-.142-.142c-.053-.213-.039-.55-.001-.772A.2.2 0 0 1 .864.973C.989.939 1.49.938 1.49.938s.502 0 .626.034a.2.2 0 0 1 .09.052m-.46.476-.416.241v-.482z" fill="#fff"></path></svg>